<svg width="49" height="48" viewBox="0 0 49 48" fill="none" xmlns="http://www.w3.org/2000/svg">
<g clip-path="url(#clip0_2830_8572)">
<path d="M24.9062 33.375C24.3888 33.375 23.9688 33.795 23.9688 34.3125C23.9688 34.83 24.3888 35.25 24.9062 35.25C25.4237 35.25 25.8438 34.83 25.8438 34.3125C25.8438 33.795 25.4237 33.375 24.9062 33.375Z" fill="#17696A"/>
<path d="M46.0938 18.375H42.7188C42.7188 15.2505 42.7188 7.39746 42.7188 4.3125C42.7188 2.7616 41.4572 1.5 39.9062 1.5H3.71875C2.16785 1.5 0.90625 2.7616 0.90625 4.3125V26.8125C0.90625 28.3634 2.16785 29.625 3.71875 29.625H7.09375V43.6875C7.09375 45.2384 8.35535 46.5 9.90625 46.5H46.0938C47.6447 46.5 48.9062 45.2384 48.9062 43.6875V21.1875C48.9062 19.6366 47.6447 18.375 46.0938 18.375ZM2.78125 9H40.8438V12.75H2.78125V9ZM3.71875 3.375H39.9062C40.4233 3.375 40.8438 3.79541 40.8438 4.3125V7.125H2.78125V4.3125C2.78125 3.79541 3.20166 3.375 3.71875 3.375ZM3.71875 27.75C3.20166 27.75 2.78125 27.3296 2.78125 26.8125V14.625H40.8438V18.375H9.90625C8.35535 18.375 7.09375 19.6366 7.09375 21.1875V27.75H3.71875ZM47.0312 43.6875C47.0312 44.2046 46.6108 44.625 46.0938 44.625H9.90625C9.38916 44.625 8.96875 44.2046 8.96875 43.6875V21.1875C8.96875 20.6704 9.38916 20.25 9.90625 20.25H46.0938C46.6108 20.25 47.0312 20.6704 47.0312 21.1875V43.6875Z" fill="#17696A"/>
<path d="M38.0312 24C37.0092 24 36.0237 24.3354 35.2184 24.9393C34.4138 24.3354 33.4287 24 32.4062 24C29.8215 24 27.7188 26.1028 27.7188 28.6875C27.7188 31.2722 29.8215 33.375 32.4062 33.375C33.4287 33.375 34.4142 33.0396 35.2184 32.4357C36.0237 33.0396 37.0092 33.375 38.0312 33.375C40.616 33.375 42.7188 31.2722 42.7188 28.6875C42.7188 26.1028 40.616 24 38.0312 24ZM29.5938 28.6875C29.5938 27.1366 30.8553 25.875 32.4062 25.875C33.2126 25.875 33.981 26.2222 34.5145 26.8275C34.5145 26.8279 34.5149 26.8282 34.5153 26.8286C34.969 27.3417 35.2188 28.002 35.2188 28.6875C35.2188 29.373 34.969 30.0333 34.5145 30.5475C33.981 31.1528 33.2126 31.5 32.4062 31.5C30.8553 31.5 29.5938 30.2384 29.5938 28.6875ZM38.0312 31.5C37.4698 31.5 36.9268 31.3312 36.4679 31.0247C36.8748 30.3186 37.0938 29.514 37.0938 28.6875C37.0938 27.861 36.8748 27.0564 36.4679 26.3503C36.9268 26.0438 37.4698 25.875 38.0312 25.875C39.5822 25.875 40.8438 27.1366 40.8438 28.6875C40.8438 30.2384 39.5822 31.5 38.0312 31.5Z" fill="#17696A"/>
<path d="M17.4062 39H13.6562C13.1384 39 12.7188 39.4197 12.7188 39.9375C12.7188 40.4553 13.1384 40.875 13.6562 40.875H17.4062C17.9241 40.875 18.3438 40.4553 18.3438 39.9375C18.3438 39.4197 17.9241 39 17.4062 39Z" fill="#17696A"/>
<path d="M24.9062 39H21.1562C20.6384 39 20.2188 39.4197 20.2188 39.9375C20.2188 40.4553 20.6384 40.875 21.1562 40.875H24.9062C25.4241 40.875 25.8438 40.4553 25.8438 39.9375C25.8438 39.4197 25.4241 39 24.9062 39Z" fill="#17696A"/>
<path d="M32.4062 39H28.6562C28.1384 39 27.7188 39.4197 27.7188 39.9375C27.7188 40.4553 28.1384 40.875 28.6562 40.875H32.4062C32.9241 40.875 33.3438 40.4553 33.3438 39.9375C33.3438 39.4197 32.9241 39 32.4062 39Z" fill="#17696A"/>
<path d="M39.9062 39H36.1562C35.6384 39 35.2188 39.4197 35.2188 39.9375C35.2188 40.4553 35.6384 40.875 36.1562 40.875H39.9062C40.4241 40.875 40.8438 40.4553 40.8438 39.9375C40.8438 39.4197 40.4241 39 39.9062 39Z" fill="#17696A"/>
<path d="M13.6562 35.25H21.1562C21.6741 35.25 22.0938 34.8303 22.0938 34.3125C22.0938 33.7947 21.6741 33.375 21.1562 33.375H13.6562C13.1384 33.375 12.7188 33.7947 12.7188 34.3125C12.7188 34.8303 13.1384 35.25 13.6562 35.25Z" fill="#17696A"/>
</g>
<defs>
<clipPath id="clip0_2830_8572">
<rect width="48" height="48" fill="white" transform="translate(0.90625)"/>
</clipPath>
</defs>
</svg>
