<svg width="48" height="48" viewBox="0 0 48 48" fill="none" xmlns="http://www.w3.org/2000/svg">
<g clip-path="url(#clip0_2830_8571)">
<path d="M23.9436 27.2813C24.4611 27.2813 24.8811 26.8612 24.8811 26.3438C24.8811 25.8263 24.4611 25.4062 23.9436 25.4062C23.4261 25.4062 23.0061 25.8263 23.0061 26.3438C23.0061 26.8612 23.4261 27.2813 23.9436 27.2813Z" fill="#17696A"/>
<path d="M23.4082 47.7318C23.5712 47.8482 23.762 47.9064 23.9532 47.9064C24.1443 47.9064 24.3351 47.8482 24.4981 47.7318C34.05 40.9089 43.6407 37.9151 43.6407 23.8764V6.49596C43.6407 6.00853 43.2668 5.6024 42.7812 5.56175L40.3444 5.35814C34.7579 4.89268 29.2618 3.05649 24.4501 0.0487979C24.1462 -0.141266 23.7602 -0.141266 23.4562 0.0487979C18.6442 3.05649 13.1481 4.89268 7.56153 5.3585L5.12512 5.56175C4.63916 5.6024 4.26562 6.00853 4.26562 6.49596V23.8764C4.26562 38.311 15.2033 41.8709 23.4082 47.7318ZM6.14063 7.35838L7.71754 7.22691C13.4088 6.7523 19.0089 4.92857 23.9532 1.94394C28.897 4.92857 34.4975 6.7523 40.1884 7.22691L41.7657 7.35838V23.8764C41.7657 36.5352 33.3308 39.2514 23.9517 45.8216C15.7204 40.108 6.14063 36.8655 6.14063 23.8764V7.35838Z" fill="#17696A"/>
<path d="M23.4068 40.9171C23.7473 41.1497 24.1762 41.1328 24.4995 40.8926C32.9865 35.0182 38.0157 33.0853 38.0157 23.8773V11.581C38.0157 11.117 37.6762 10.7226 37.2173 10.6537C32.7305 9.97955 28.4125 8.58319 24.3831 6.50347C24.093 6.35369 23.7477 6.37273 23.4818 6.52434C19.4638 8.59307 15.1597 9.98248 10.689 10.6537C10.2301 10.7226 9.89062 11.1166 9.89062 11.581V23.8773C9.89062 33.1721 15.3988 35.4532 23.4068 40.9171ZM11.7656 12.3804C15.6647 11.7209 19.4352 10.5347 23.0061 8.84832V22.5937C23.0061 23.1115 23.4258 23.5312 23.9436 23.5312C24.4615 23.5312 24.8811 23.1115 24.8811 22.5937V8.83953C28.4572 10.53 32.2347 11.7194 36.1407 12.3804V23.8773C36.1407 31.4982 32.5709 33.1597 24.8811 38.3602V30.0937C24.8811 29.5759 24.4615 29.1562 23.9436 29.1562C23.4258 29.1562 23.0061 29.5759 23.0061 30.0937V38.3873C15.8214 33.6046 11.7656 31.5608 11.7656 23.8773V12.3804Z" fill="#17696A"/>
</g>
<defs>
<clipPath id="clip0_2830_8571">
<rect width="47.9064" height="48" fill="white"/>
</clipPath>
</defs>
</svg>
